<?xml version="1.0" encoding="iso-8859-1"?>
<!-- Generator: Adobe Illustrator 16.0.0, SVG Export Plug-In . SVG Version: 6.00 Build 0) -->
<!DOCTYPE svg PUBLIC "-//W3C//DTD SVG 1.1//EN" "http://www.w3.org/Graphics/SVG/1.1/DTD/svg11.dtd">
<svg version="1.1" id="Capa_1" xmlns="http://www.w3.org/2000/svg" xmlns:xlink="http://www.w3.org/1999/xlink" x="0px" y="0px" viewBox="0 0 520.532 520.532" style="enable-background:new 0 0 520.532 520.532;" xml:space="preserve">
	<g>
		<path d="M407.666,147.391H112.875C50.637,147.391,0,198.025,0,260.263c0,62.24,50.637,112.878,112.875,112.878h294.791
		c62.229,0,112.866-50.638,112.866-112.878C520.532,198.025,469.9,147.391,407.666,147.391z M142.727,192.363
		c-78.586,0-83.98,41.81-84.021,42.238c-0.618,5.739-5.467,10.001-11.121,10.001c-0.393,0-0.798-0.018-1.197-0.068
		c-6.156-0.653-10.604-6.18-9.945-12.32c0.272-2.545,7.802-62.241,106.284-62.241c6.18,0,11.198,5.012,11.198,11.198
		S148.913,192.363,142.727,192.363z M407.666,345.153h-95.151V175.379h95.151c46.808,0,84.885,38.083,84.885,84.884
		C492.55,307.07,454.473,345.153,407.666,345.153z" />
	</g>
	<g>
	</g>
	<g>
	</g>
	<g>
	</g>
	<g>
	</g>
	<g>
	</g>
	<g>
	</g>
	<g>
	</g>
	<g>
	</g>
	<g>
	</g>
	<g>
	</g>
	<g>
	</g>
	<g>
	</g>
	<g>
	</g>
	<g>
	</g>
	<g>
	</g>
</svg>
