<?xml version="1.0" encoding="iso-8859-1"?>
<!-- Generator: Adobe Illustrator 19.0.0, SVG Export Plug-In . SVG Version: 6.00 Build 0)  -->
<svg version="1.1" id="Layer_1" xmlns="http://www.w3.org/2000/svg" xmlns:xlink="http://www.w3.org/1999/xlink" x="0px" y="0px"
	 viewBox="0 0 512 512" style="enable-background:new 0 0 512 512;" xml:space="preserve">
<g>
	<g>
		<path d="M354.076,133.069c-21.954,0-18.762-24.851-18.762-33.61c10.398-0.537,18.67-9.113,18.67-19.643v-60.12
			C353.984,8.818,345.165,0,334.288,0H177.712c-10.877,0-19.696,8.818-19.696,19.696v60.12c0,10.532,8.272,19.108,18.67,19.643
			c0,8.815,3.27,33.61-18.762,33.61c-36.485,0-66.166,29.683-66.166,66.166v293.069c0,10.877,8.818,19.696,19.696,19.696h289.09
			c10.877,0,19.696-8.818,19.696-19.696V199.235h0.001C420.242,162.752,390.56,133.069,354.076,133.069z M305.206,385.27h-29.51
			v29.511c0,10.877-8.818,19.696-19.696,19.696c-10.877,0-19.696-8.818-19.696-19.696V385.27h-29.511
			c-10.877,0-19.696-8.818-19.696-19.696c0-10.877,8.818-19.696,19.696-19.696h29.511v-29.51c0-10.877,8.818-19.696,19.696-19.696
			c10.877,0,19.696,8.818,19.696,19.696v29.51h29.51c10.877,0,19.696,8.818,19.696,19.696
			C324.902,376.452,316.085,385.27,305.206,385.27z M380.85,219.152H131.151v-19.915c0-14.764,12.01-26.775,26.773-26.775
			c32.066,0,58.154-26.088,58.154-58.154V99.511h79.843v14.797c0,32.066,26.088,58.154,58.154,58.154
			c14.763,0,26.775,12.011,26.775,26.775V219.152z"/>
	</g>
</g>
<g>
</g>
<g>
</g>
<g>
</g>
<g>
</g>
<g>
</g>
<g>
</g>
<g>
</g>
<g>
</g>
<g>
</g>
<g>
</g>
<g>
</g>
<g>
</g>
<g>
</g>
<g>
</g>
<g>
</g>
</svg>
